<svg width="21" height="24" viewBox="0 0 21 24" xmlns="http://www.w3.org/2000/svg"><g transform="matrix(-1 0 0 1 21 0)" fill="none"><path d="M1.26 5.445L8.55.519a2.864 2.864 0 0 1 3.206 0l7.29 4.926a2.864 2.864 0 0 1 1.26 2.373v8.228c0 .951-.473 1.84-1.26 2.373l-7.29 4.925a2.864 2.864 0 0 1-3.207 0L1.26 18.42A2.864 2.864 0 0 1 0 16.046V7.818c0-.951.472-1.84 1.26-2.373z" fill="#F76263"/><rect fill="#FFF" x="2.343" y="9.588" width="2.343" height="5.467" rx="1.172"/><rect fill="#FFF" x="11.715" y="9.588" width="2.343" height="5.467" rx="1.172"/><path d="M6.119 18.18c-.36 0-.652-.35-.652-.782 0-.431.292-.78.652-.78H9.5c.36 0 .652.349.652.78 0 .432-.292.781-.652.781H6.119z" fill="#FFF"/><path d="M15.273 7.53c-.116.388-.473.591-.798.454-.325-.137-.497-.561-.382-.949L15.968.713c.114-.387.471-.59.797-.453.325.136.496.56.381.948L15.272 7.53zm-11.801 0c.114.388.471.591.797.454.325-.137.496-.561.382-.949L2.776.713C2.66.326 2.304.123 1.979.26c-.325.136-.497.56-.382.948L3.472 7.53z" fill="#F76263"/></g></svg>