<svg width="110" height="110" viewBox="0 0 110 110" xmlns="http://www.w3.org/2000/svg"><g fill="none" fill-rule="evenodd"><circle cx="55" cy="55" r="55" fill="#263D6C"/><path d="M30.337 29.672c-2.562 0-4.666 2.104-4.666 4.666v18.667c0 2.562 2.104 4.666 4.666 4.666h1.958l.042 7.999v.002a1.333 1.333 0 0 0 2.416.768l6.25-8.769h4.665v8.665c0 2.563 2.104 4.666 4.666 4.666h18.664l6.249 8.77v.002a1.332 1.332 0 0 0 2.416-.77l.042-8.002h1.958c2.562 0 4.666-2.104 4.666-4.666V47.67c0-2.562-2.104-4.666-4.666-4.666H64.332v-8.668c0-2.562-2.104-4.666-4.666-4.666H30.337v.002zm0 2.667h29.329c1.13 0 2 .87 2 2v8.667H50.334c-2.562 0-4.666 2.104-4.666 4.666v7.333h-5.353a1.333 1.333 0 0 0-1.083.541l-4.25 5.958-.02-5.187a1.331 1.331 0 0 0-1.334-1.312h-3.29c-1.131 0-2-.87-2-2V34.338c0-1.13.869-2 2-2h-.001zm19.997 13.334h29.329c1.13 0 2 .87 2 2v18.666c0 1.13-.87 2-2 2h-3.291a1.33 1.33 0 0 0-1.333 1.312l-.021 5.187-4.25-5.958a1.326 1.326 0 0 0-1.083-.541h-19.35c-1.13 0-2-.87-2-2V47.672c0-1.132.87-2 2-2h-.001z" fill="#FFF"/><path d="M32.5 39.5h24.546M32.5 47.57h14m6.943 14.08l6.87-6.762 6.83 6.003 11.153-9.832" stroke="#FFF" stroke-width="3" stroke-linecap="round" stroke-linejoin="round"/><circle stroke="#FFF" stroke-width="2" fill="#263D6C" cx="60.462" cy="55.403" r="2.495"/><circle stroke="#FFF" stroke-width="2" fill="#263D6C" cx="53.443" cy="61.649" r="2.495"/><circle stroke="#FFF" stroke-width="2" fill="#263D6C" cx="67.255" cy="60.393" r="2.495"/><circle stroke="#FFF" stroke-width="2" fill="#263D6C" cx="76.993" cy="52" r="2.495"/></g></svg>