<?xml version="1.0" encoding="UTF-8" standalone="no"?>
<svg
   xmlns:dc="http://purl.org/dc/elements/1.1/"
   xmlns:cc="http://creativecommons.org/ns#"
   xmlns:rdf="http://www.w3.org/1999/02/22-rdf-syntax-ns#"
   xmlns:svg="http://www.w3.org/2000/svg"
   xmlns="http://www.w3.org/2000/svg"
   xmlns:sodipodi="http://sodipodi.sourceforge.net/DTD/sodipodi-0.dtd"
   xmlns:inkscape="http://www.inkscape.org/namespaces/inkscape"
   width="32px"
   height="24px"
   viewBox="0 0 32 24"
   version="1.1"
   id="svg8"
   sodipodi:docname="consultant-fire.svg"
   inkscape:version="0.92.3 (2405546, 2018-03-11)">
  <metadata
     id="metadata14">
    <rdf:RDF>
      <cc:Work
         rdf:about="">
        <dc:format>image/svg+xml</dc:format>
        <dc:type
           rdf:resource="http://purl.org/dc/dcmitype/StillImage" />
        <dc:title>Consultant</dc:title>
      </cc:Work>
    </rdf:RDF>
  </metadata>
  <defs
     id="defs12" />
  <sodipodi:namedview
     pagecolor="#ffffff"
     bordercolor="#666666"
     borderopacity="1"
     objecttolerance="10"
     gridtolerance="10"
     guidetolerance="10"
     inkscape:pageopacity="0"
     inkscape:pageshadow="2"
     inkscape:window-width="1533"
     inkscape:window-height="845"
     id="namedview10"
     showgrid="false"
     inkscape:zoom="9.8333333"
     inkscape:cx="-1.7457628"
     inkscape:cy="12"
     inkscape:window-x="67"
     inkscape:window-y="27"
     inkscape:window-maximized="1"
     inkscape:current-layer="svg8" />
  <!-- Generator: Sketch 52.6 (67491) - http://www.bohemiancoding.com/sketch -->
  <title
     id="title2">Consultant</title>
  <desc
     id="desc4">Created with Sketch.</desc>
  <g
     id="Jobs"
     stroke="none"
     stroke-width="1"
     fill="none"
     fill-rule="evenodd"
     style="fill:#ffffff;fill-opacity:1">
    <path
       d="M10.2501818,0.359272727 L31.2727273,0.359250909 C31.6534109,0.359250909 32,0.705832727 32,1.08652364 L32,14.1999782 C32,14.5806618 31.6534182,14.9272509 31.2727273,14.9272509 L28.1250182,14.9272509 L28.1363818,18.4954327 C28.1349636,18.7880509 27.9389273,19.0707236 27.6647818,19.1729964 C27.3906364,19.2752691 27.0568364,19.1914618 26.8636545,18.9727127 L23.4318364,14.9272582 L22.4886364,14.9272582 L22.4886364,18.6090764 C22.4886364,18.98976 22.1420545,19.3363491 21.7613636,19.3363491 L8.57954545,19.3363491 L5.14772727,23.3818036 C4.95736364,23.6104956 4.61646182,23.6999855 4.33805455,23.5962909 C4.05822182,23.4926182 3.85935673,23.20284 3.86361818,22.9045455 L3.87498182,19.3363636 L0.727272727,19.3363636 C0.346589091,19.3363636 -4.61852778e-14,18.9897818 -4.61852778e-14,18.6090909 L-4.61852778e-14,5.49563636 C-4.61852778e-14,5.11495273 0.346581818,4.76836364 0.727272727,4.76836364 L9.52290909,4.76836364 L9.52290909,1.08654545 C9.52290909,0.705861818 9.86949091,0.359272727 10.2501818,0.359272727 Z M10.9774545,1.81381818 L10.9771091,1.81381818 L10.9771091,13.4727455 L23.7727455,13.4727455 C23.9843745,13.4727455 24.1946036,13.5721782 24.3295455,13.7341091 L26.6818364,16.5068364 L26.6704727,14.2 C26.6704727,13.8193164 27.0170545,13.4727273 27.3977455,13.4727273 L30.5454545,13.4727273 L30.5454545,1.81381818 L10.9774545,1.81381818 Z M1.45445455,6.22290909 L1.45445455,17.8821636 L4.61354545,17.8821636 C4.99422909,17.8821636 5.34081818,18.2287455 5.34081818,18.6094364 L5.32945455,20.9162727 L7.68174545,18.1435455 C7.81665455,17.9816145 8.02689818,17.8821818 8.23854545,17.8821818 L21.0341818,17.8821818 L21.0341818,14.9276364 L10.2501818,14.9276364 C9.86949818,14.9276364 9.52290909,14.5810545 9.52290909,14.2003636 L9.52290909,6.22290909 L1.45445455,6.22290909 Z M20.9774545,5.41745455 C22.1734909,5.41745455 23.1592727,6.40323636 23.1592727,7.59927273 C23.1592727,8.79530909 22.1734909,9.78109091 20.9774545,9.78109091 C19.7814182,9.78109091 18.7956364,8.79530909 18.7956364,7.59927273 C18.7956364,6.40323636 19.7814182,5.41745455 20.9774545,5.41745455 Z M20.9774545,6.872 C20.5669418,6.872 20.2501818,7.18876364 20.2501818,7.59927273 C20.2501818,8.00978545 20.5669418,8.32654545 20.9774545,8.32654545 C21.3879673,8.32654545 21.7047273,8.00978182 21.7047273,7.59927273 C21.7047273,7.18876 21.3879636,6.872 20.9774545,6.872 Z M26.9603636,5.41745455 C28.1564,5.41745455 29.1421818,6.40323636 29.1421818,7.59927273 C29.1421818,8.79530909 28.1564,9.78109091 26.9603636,9.78109091 C25.7657455,9.78109091 24.7785455,8.79814545 24.7785455,7.59927273 C24.7785455,6.4004 25.7657455,5.41745455 26.9603636,5.41745455 Z M26.9603636,6.872 C26.5555345,6.872 26.2330909,7.19018182 26.2330909,7.59927273 C26.2330909,8.00836364 26.5555273,8.32654545 26.9603636,8.32654545 C27.3708764,8.32654545 27.6876364,8.00978182 27.6876364,7.59927273 C27.6876364,7.18876 27.3708727,6.872 26.9603636,6.872 Z M14.9916364,5.41745455 C16.1876727,5.41745455 17.1734545,6.40323636 17.1734545,7.59927273 C17.1734545,8.79530909 16.1876727,9.78109091 14.9916364,9.78109091 C13.7956,9.78109091 12.8098182,8.79530909 12.8098182,7.59927273 C12.8098182,6.40323636 13.7956,5.41745455 14.9916364,5.41745455 Z M14.9916364,6.872 C14.5811236,6.872 14.2643636,7.18876364 14.2643636,7.59927273 C14.2643636,8.00978545 14.5811273,8.32654545 14.9916364,8.32654545 C15.4021491,8.32654545 15.7189091,8.00978182 15.7189091,7.59927273 C15.7189091,7.18876 15.4021455,6.872 14.9916364,6.872 Z"
       id="Consultant"
       fill="#000000"
       fill-rule="nonzero"
       style="fill:#ffffff;fill-opacity:1" />
  </g>
</svg>
