<?xml version="1.0" encoding="UTF-8"?>
<svg width="16px" height="20px" viewBox="0 0 16 20" version="1.1" xmlns="http://www.w3.org/2000/svg" xmlns:xlink="http://www.w3.org/1999/xlink">
    <!-- Generator: Sketch 52.6 (67491) - http://www.bohemiancoding.com/sketch -->
    <title>Fire</title>
    <desc>Created with Sketch.</desc>
    <g id="Jobs" stroke="none" stroke-width="1" fill="none" fill-rule="evenodd">
        <path d="M11.9095485,6.0861871 L11.6537517,5.92111613 C10.9972356,5.50150323 10.3785581,5.1046 9.88333234,4.5929871 C9.08694524,3.77392258 8.79462266,2.99395484 8.96346137,2.1396 C8.98992299,2.00350968 9.03528718,1.87120323 9.08694847,1.71369677 C9.11845073,1.61792903 9.15247105,1.51460323 9.18775492,1.39993548 L9.61365815,0 L8.32459363,0.695548387 C4.13233557,2.9536129 4.14233557,7.27554839 4.45620653,9.82103226 C3.77198073,9.14690323 3.39901299,7.95106452 3.41917428,6.86867742 L3.44563589,5.37296774 L2.18934557,6.62925806 C2.07971976,6.73510323 2.00159395,6.81449032 1.93102944,6.89261613 C0.520997179,8.43493871 -0.0901318528,10.2987452 0.0106745989,12.7571323 C0.149284276,16.2361645 3.00841653,19.0422935 6.96519073,19.5803581 C7.27769073,19.6219419 7.59773911,19.6433613 7.91780363,19.6433613 C11.0856423,19.6433613 14.1387714,17.5995226 15.1758681,14.7856194 C16.3893198,11.5069097 15.1380649,8.17400645 11.9097391,6.08594194 L11.9095485,6.0861871 Z" id="Fire" fill="#E41919"></path>
    </g>
</svg>