<svg width="99" height="99" viewBox="0 0 99 99" xmlns="http://www.w3.org/2000/svg"><path d="M1.097 31.336L8.74 34.27m1.73.665l7.643 2.935m1.82.699l7.644 2.934M67.1 56.68l7.644 2.936m1.729.664l7.644 2.935M.713 65.816l7.708-2.764m1.743-.626l7.707-2.764m1.835-.658l7.708-2.765m39.85-14.293l7.707-2.765M20.503 7.457l4.436 6.882m1.004 1.557l4.436 6.882m1.056 1.639l4.436 6.882m22.936 35.586l4.436 6.883M41.337 20.356l1.674 8.015m8.655 41.443l1.674 8.015m.379 1.813l1.674 8.015m.398 1.909l1.674 8.015M24.038 31.235l6.499 4.981M64.14 61.969l6.5 4.98m1.47 1.126l6.498 4.98m1.548 1.187l6.499 4.98M65.874 14.218l-3.842 7.23m-.915 1.722l-3.843 7.23M37.403 67.784l-3.843 7.23m-.869 1.636l-3.843 7.23m-.914 1.722l-3.843 7.23m60.63-76.239l-6.18 5.372m-1.397 1.215l-6.179 5.372m-1.471 1.28l-6.18 5.372M31.363 62.98l-6.18 5.373M54.454.072l-1.176 8.103m-.266 1.833l-1.176 8.103m-.28 1.929l-1.176 8.103m-6.082 41.898l-1.176 8.104m-.267 1.832L41.68 88.08m38.615-48.145v-5.327m-2.664 2.663h5.327M70.922 21.943v-5.327m-2.663 2.664h5.327m-8.253 67.033v-5.327m-2.664 2.664h5.327m27.446-13.864V64.46m-2.663 2.662h5.327M40.81 98.9v-5.327m-2.665 2.664h5.327m-7.156-89.45V1.46m-2.664 2.663h5.327M18.23 29.448v-5.327m-2.663 2.664h5.327m-2.912 54.069v-5.327m-2.664 2.663h5.327" stroke="#4ED3A9" fill="none"/></svg>