<svg width="32" height="30" viewBox="0 0 32 30" fill="none" xmlns="http://www.w3.org/2000/svg">
<g id="Group Copy">
<path id="Combined Shape" fill-rule="evenodd" clip-rule="evenodd" d="M30.9997 14.625C30.9997 22.7022 24.227 29.25 15.8724 29.25C7.51783 29.25 0.745117 22.7022 0.745117 14.625C0.745117 6.54784 7.51783 0 15.8724 0C24.227 0 30.9997 6.54784 30.9997 14.625ZM9.36766 9.75C8.78134 9.75 8.30875 10.208 8.30875 10.7763V18.4737C8.30875 19.042 8.78134 19.5 9.36766 19.5H23.1335C23.7198 19.5 24.1924 19.042 24.1924 18.4737V10.7763C24.1924 10.208 23.7198 9.75 23.1335 9.75H9.36766ZM11.2125 11.0249C11.4245 11.0249 11.6354 11.1101 11.7833 11.2574L16.0025 15.3227C16.0832 15.3998 16.4089 15.3928 16.4906 15.3146L20.7181 11.2576C21.0148 10.972 21.5526 10.974 21.8473 11.2616C22.142 11.5493 22.1399 12.0704 21.8431 12.3561L19.3696 14.7294L21.8183 16.8863C22.1254 17.1589 22.1492 17.6791 21.8679 17.9767C21.5867 18.2744 21.05 18.2975 20.7429 18.0249L18.2362 15.8119L17.6075 16.4132C16.8443 17.1449 15.6406 17.1469 14.8776 16.4132L14.2571 15.8199L11.7588 18.0249C11.4516 18.2975 10.915 18.2754 10.6337 17.9768C10.3524 17.6791 10.3762 17.1589 10.6833 16.8863L13.1321 14.7295L10.6585 12.3561C10.4403 12.1536 10.3576 11.8249 10.4558 11.5483C10.6213 11.2386 10.8725 11.0331 11.2128 11.0251L11.2125 11.0249Z" fill="white"/>
</g>
</svg>
