<svg xmlns="http://www.w3.org/2000/svg" width="362" height="232" viewBox="0 0 362 232"><g fill="none"><path fill="#263D6C" d="M79.21 93.194H40.252V69.599h38.956v23.595zm-37.013-1.945h35.068V71.544H42.197v19.705z"/><path fill="#E41B1D" d="M177.476 62.145c-7.066 0-12.77-5.769-12.77-12.77 0-7 5.77-12.769 12.77-12.769s12.769 5.77 12.769 12.77-5.704 12.77-12.77 12.77zm0-23.659c-5.964 0-10.825 4.862-10.825 10.825 0 5.963 4.861 10.825 10.825 10.825 5.963 0 10.824-4.862 10.824-10.825 0-5.963-4.861-10.825-10.824-10.825z"/><path fill="#FFF" d="M163.799 49.376h27.483v16.918h-27.483z"/><path fill="#263D6C" d="M192.19 67.201h-29.428V48.34h29.428V67.2zm-27.419-1.945h25.539V50.283h-25.54v14.973z"/><path fill="#E41B1D" d="M172.484 47.172h-1.944a6.667 6.667 0 0 1 6.676-6.677v1.945a4.717 4.717 0 0 0-4.732 4.732z"/><path fill="#263D6C" d="M339.135 177.977H85.238a11.591 11.591 0 0 1-11.603-11.602 11.591 11.591 0 0 1 11.603-11.603h253.897a11.591 11.591 0 0 1 11.603 11.603 11.591 11.591 0 0 1-11.603 11.602zM85.238 156.652c-5.316 0-9.659 4.343-9.659 9.658 0 5.315 4.343 9.658 9.659 9.658h253.897c5.315 0 9.658-4.343 9.658-9.658 0-5.315-4.343-9.658-9.658-9.658H85.238z"/><path fill="#010202" d="M117.064 156.782c5.25 0 9.593 4.278 9.593 9.593 0 5.25-4.278 9.593-9.593 9.593-5.25 0-9.593-4.278-9.593-9.593a9.572 9.572 0 0 1 9.593-9.593zm0-1.945c-6.352 0-11.538 5.185-11.538 11.538 0 6.352 5.186 11.538 11.538 11.538s11.538-5.186 11.538-11.538c0-6.353-5.186-11.538-11.538-11.538zm45.827 1.945c5.25 0 9.593 4.278 9.593 9.593 0 5.25-4.278 9.593-9.593 9.593-5.25 0-9.593-4.278-9.593-9.593a9.572 9.572 0 0 1 9.593-9.593zm0-1.945c-6.352 0-11.538 5.185-11.538 11.538 0 6.352 5.186 11.538 11.538 11.538s11.538-5.186 11.538-11.538c0-6.353-5.186-11.538-11.538-11.538z"/><path fill="#263D6C" d="M338.681 160.476a5.81 5.81 0 0 1 5.834 5.834 5.81 5.81 0 0 1-5.834 5.834 5.81 5.81 0 0 1-5.833-5.834 5.81 5.81 0 0 1 5.833-5.834zm0-1.944c-4.278 0-7.778 3.5-7.778 7.778s3.5 7.778 7.778 7.778c4.279 0 7.779-3.5 7.779-7.778a7.76 7.76 0 0 0-7.779-7.778zm-43.299 1.944a5.81 5.81 0 0 1 5.834 5.834 5.81 5.81 0 0 1-5.834 5.834 5.81 5.81 0 0 1-5.834-5.834 5.81 5.81 0 0 1 5.834-5.834zm0-1.944c-4.278 0-7.778 3.5-7.778 7.778s3.5 7.778 7.778 7.778 7.778-3.5 7.778-7.778-3.5-7.778-7.778-7.778zm-43.364 1.944a5.81 5.81 0 0 1 5.834 5.834 5.81 5.81 0 0 1-5.834 5.834 5.81 5.81 0 0 1-5.834-5.834c0-3.241 2.658-5.834 5.834-5.834zm0-1.944c-4.278 0-7.778 3.5-7.778 7.778s3.5 7.778 7.778 7.778 7.778-3.5 7.778-7.778a7.76 7.76 0 0 0-7.778-7.778zm-46.216 1.944a5.81 5.81 0 0 1 5.833 5.834 5.81 5.81 0 0 1-5.833 5.834 5.81 5.81 0 0 1-5.834-5.834 5.81 5.81 0 0 1 5.834-5.834zm0-1.944c-4.278 0-7.779 3.5-7.779 7.778s3.5 7.778 7.779 7.778c4.278 0 7.778-3.5 7.778-7.778s-3.5-7.778-7.778-7.778zM31.437 229.315h329.801v1.945H31.437z"/><path fill="#FFF" d="M201.07 60.33H73.44c-2.852 0-5.185 2.334-5.185 5.186v164.77H206.19V65.517c0-2.917-2.27-5.186-5.121-5.186z"/><path fill="#263D6C" d="M207.163 231.259H67.283V65.516c0-3.37 2.787-6.158 6.157-6.158h127.565c3.37 0 6.158 2.787 6.158 6.158v165.743zm-137.936-1.945h135.991V65.516a4.205 4.205 0 0 0-4.213-4.213H73.44a4.205 4.205 0 0 0-4.213 4.213v163.798z"/><path fill="#263D6C" d="M88.09 90.277h1.945v54.967H88.09zm22.168 0h1.945v54.967h-1.945z"/><path fill="#FFF" d="M95.155 104.148H83.423c-2.14 0-3.825-1.75-3.825-3.824 0-2.14 1.75-3.825 3.825-3.825h11.732c2.139 0 3.824 1.75 3.824 3.825.065 2.074-1.685 3.824-3.824 3.824z"/><path fill="#263D6C" d="M95.155 105.12H83.423a4.786 4.786 0 0 1-4.797-4.796 4.786 4.786 0 0 1 4.797-4.797h11.732a4.786 4.786 0 0 1 4.797 4.797 4.786 4.786 0 0 1-4.797 4.796zm-11.732-7.713a2.836 2.836 0 0 0-2.852 2.852c0 1.556 1.296 2.852 2.852 2.852h11.732a2.836 2.836 0 0 0 2.852-2.852c0-1.556-1.296-2.852-2.852-2.852H83.423z"/><path fill="#FFF" d="M117.129 121.65h-11.733c-2.139 0-3.824-1.75-3.824-3.825 0-2.139 1.75-3.824 3.824-3.824h11.733c2.139 0 3.824 1.75 3.824 3.824s-1.75 3.824-3.824 3.824z"/><path fill="#263D6C" d="M117.129 122.622h-11.733a4.786 4.786 0 0 1-4.796-4.797 4.786 4.786 0 0 1 4.796-4.797h11.733a4.786 4.786 0 0 1 4.796 4.797 4.786 4.786 0 0 1-4.796 4.797zm-11.733-7.714a2.836 2.836 0 0 0-2.852 2.852c0 1.556 1.297 2.852 2.852 2.852h11.733a2.836 2.836 0 0 0 2.852-2.852c0-1.555-1.297-2.852-2.852-2.852h-11.733z"/><path fill="#FFF" d="M137.223 82.499h56.523v83.812h-56.523z"/><path fill="#263D6C" d="M194.718 167.282H136.25V81.526h58.468v85.756zm-56.523-1.944h54.578V83.47h-54.578v81.867z"/><path fill="#E1E0E0" d="M144.742 92.35h41.549v1.946h-41.549zm0 9.076h20.742v1.945h-20.742zm0 15.427h32.734v1.945h-32.734z"/><path fill="#263D6C" d="M337.709 177.848h1.945v52.374h-1.945zm-43.299 0h1.945v52.374h-1.945zm-43.364 0h1.945v52.374h-1.945zM49.716 78.09h1.945v13.613h-1.945zm12.77 0h1.945v13.613h-1.945z"/><path fill="#E41B1D" d="M255.518 149.133l-12.77-.065-.259-.454c-1.101-1.75-2.009-3.565-2.852-5.445l-.648-1.555-7.13 2.852v-4.538c0-1.62.713-3.176 1.945-4.278l2.852-2.528-.13-.907c-1.815-12.77 2.14-25.41 11.797-37.595.26-.324.648-.519 1.102-.519.454 0 .843.195 1.102.584 9.464 12.25 13.288 25.02 11.279 37.724l-.13.908 2.787 2.593c1.167 1.102 1.88 2.657 1.88 4.278v4.537l-7.065-2.917-.649 1.491a43.945 43.945 0 0 1-2.916 5.445l-.195.389zm-11.667-2.01l10.63.065a40.869 40.869 0 0 0 2.463-4.732l1.426-3.24 6.158 2.592v-1.62c0-1.102-.454-2.074-1.232-2.852l-3.63-3.306.325-1.945c1.88-11.991-1.686-24.048-10.501-35.715-9.01 11.602-12.705 23.53-11.02 35.586l.26 1.944-3.63 3.241c-.778.713-1.296 1.75-1.296 2.787v1.621l6.157-2.463 1.427 3.306c.713 1.62 1.49 3.24 2.463 4.731zm6.093-51.337c-.065 0-.065.065 0 0-.065.065-.065 0 0 0zm-.908.065s.065 0 0 0c.065 0 0 0 0 0zm.195 41.16a4.652 4.652 0 0 1-3.306-1.36 4.606 4.606 0 0 1-1.361-3.306c0-2.593 2.139-4.667 4.667-4.667 1.231 0 2.398.518 3.305 1.36a4.606 4.606 0 0 1 1.362 3.307c0 1.231-.519 2.398-1.362 3.305a4.768 4.768 0 0 1-3.305 1.362zm0-7.454a2.739 2.739 0 0 0-2.723 2.723c0 .713.26 1.426.778 1.944.519.519 1.232.843 1.945.843.713 0 1.426-.26 1.944-.778.519-.518.843-1.231.843-1.944 0-.713-.26-1.426-.778-1.945-.583-.519-1.232-.843-2.01-.843zm.13-4.731c-.066 0-.066 0 0 0-1.686 0-3.242-.649-4.408-1.88a6.173 6.173 0 0 1-1.815-4.408c0-3.435 2.787-6.158 6.222-6.158h.065c1.685 0 3.241.648 4.408 1.88a6.173 6.173 0 0 1 1.815 4.408c0 1.685-.648 3.24-1.88 4.407a6.335 6.335 0 0 1-4.408 1.75zm-.066-10.436c-2.333 0-4.278 1.88-4.278 4.213 0 1.167.454 2.204 1.232 3.046.778.843 1.88 1.297 3.046 1.297a4.275 4.275 0 0 0 2.982-1.232c.843-.778 1.297-1.88 1.297-3.046 0-1.167-.454-2.204-1.232-3.047-.778-.778-1.815-1.231-3.047-1.231.065 0 .065 0 0 0zm62.292 34.743l-12.77-.065-.259-.454c-1.102-1.75-2.01-3.565-2.852-5.445l-.648-1.555-7.13 2.852v-4.538c0-1.62.713-3.176 1.944-4.278l2.852-2.528-.13-.907c-1.814-12.77 2.14-25.41 11.798-37.595.26-.324.713-.519 1.102-.519.454 0 .843.195 1.102.584 9.463 12.25 13.288 25.02 11.278 37.724l-.13.908 2.788 2.593c1.167 1.102 1.88 2.657 1.88 4.278v4.537l-7.066-2.917-.648 1.491a43.945 43.945 0 0 1-2.917 5.445l-.194.389zm-11.732-2.01l10.63.065a40.869 40.869 0 0 0 2.463-4.732l1.426-3.24 6.158 2.592v-1.62c0-1.102-.454-2.074-1.232-2.852l-3.63-3.306.325-1.945c1.88-11.991-1.686-24.048-10.501-35.715-9.01 11.602-12.705 23.53-11.02 35.586l.26 1.944-3.63 3.241c-.778.713-1.296 1.75-1.296 2.787v1.621l6.157-2.463 1.426 3.306c.778 1.62 1.556 3.24 2.464 4.731zm6.093-51.337s0 .065 0 0c0 .065 0 0 0 0zm-.649 41.226a4.652 4.652 0 0 1-3.305-1.362 4.606 4.606 0 0 1-1.362-3.305c0-2.593 2.14-4.667 4.667-4.667 1.232 0 2.399.518 3.306 1.36a4.606 4.606 0 0 1 1.361 3.307c0 1.231-.518 2.398-1.36 3.305-.908.843-2.075 1.362-3.307 1.362zm0-7.455a2.739 2.739 0 0 0-2.722 2.723c0 .713.26 1.426.778 1.944.518.519 1.231.843 1.944.843.713 0 1.426-.26 1.945-.778.519-.518.843-1.231.843-1.944 0-.713-.26-1.426-.778-1.945-.584-.519-1.232-.843-2.01-.843zm.065-4.731c-1.685 0-3.24-.649-4.407-1.88a6.173 6.173 0 0 1-1.815-4.408c0-3.435 2.787-6.158 6.222-6.158h.065c1.685 0 3.241.648 4.408 1.88a6.173 6.173 0 0 1 1.815 4.408c0 1.685-.648 3.24-1.88 4.407-1.167 1.167-2.722 1.75-4.408 1.75zm0-10.436c-2.333 0-4.278 1.88-4.278 4.213 0 1.167.454 2.204 1.232 3.046.778.843 1.88 1.297 3.046 1.297a4.275 4.275 0 0 0 2.982-1.232c.843-.778 1.296-1.88 1.296-3.046 0-1.167-.453-2.204-1.231-3.047-.778-.778-1.88-1.231-3.047-1.231.065 0 0 0 0 0z"/><path fill="#E1E0E0" d="M34.03 78.22h-1.944V51.58H58.92c7.39 0 13.353-6.029 13.353-13.353 0-7.325-6.029-13.353-13.353-13.353h-.648l-1.362.065.065-1.102c.065-.583.065-1.167.065-1.685 0-11.02-9.01-20.03-20.03-20.03a19.965 19.965 0 0 0-19.704 16.53l-.13.712-.713.065C8.232 20.207 2.01 27.143 2.01 35.44c0 8.88 7.26 16.14 16.14 16.14h6.482v1.945H18.15C8.167 53.524.065 45.422.065 35.44c0-9.075 6.611-16.659 15.492-17.89C17.696 7.437 26.64.112 37.077.112c12.12 0 21.973 9.853 21.973 21.974v.713c8.427.065 15.233 6.935 15.233 15.297 0 8.427-6.87 15.298-15.297 15.298H34.095V78.22h-.065z"/></g></svg>