<svg width="31" height="30" viewBox="0 0 31 30" fill="none" xmlns="http://www.w3.org/2000/svg">
<path fill-rule="evenodd" clip-rule="evenodd" d="M0 14.9419C0 6.68965 6.77266 0 15.1273 0C23.4819 0 30.2545 6.68965 30.2545 14.9419C30.2545 23.1941 23.4819 29.8837 15.1273 29.8837C6.77266 29.8837 0 23.1941 0 14.9419ZM10.9672 6H19.0325C21.7717 6 24.0001 8.22841 24 10.9673V19.0326C24 21.7716 21.7717 24 19.0325 24H10.9672C8.22831 24 6 21.7717 6 19.0326V10.9673C6 8.22841 8.22831 6 10.9672 6ZM19.0326 22.403C20.8911 22.403 22.4031 20.8911 22.4031 19.0326H22.403V10.9673C22.403 9.10903 20.891 7.59705 19.0325 7.59705H10.9672C9.10892 7.59705 7.59705 9.10903 7.59705 10.9673V19.0326C7.59705 20.8911 9.10892 22.4031 10.9672 22.403H19.0326ZM15.0003 10.3622C12.4428 10.3622 10.3622 12.4428 10.3622 15.0003C10.3622 17.5577 12.4428 19.6382 15.0003 19.6382C17.5578 19.6382 19.6385 17.5577 19.6385 15.0003C19.6385 12.4428 17.5578 10.3622 15.0003 10.3622ZM15.0003 18.0411C13.3235 18.0411 11.9592 16.677 11.9592 15.0002C11.9592 13.3233 13.3234 11.9591 15.0003 11.9591C16.6772 11.9591 18.0414 13.3233 18.0414 15.0002C18.0414 16.677 16.6771 18.0411 15.0003 18.0411ZM19.0052 9.35075C19.2225 9.13248 19.5248 9.00792 19.8325 9.00792C20.1412 9.00792 20.4436 9.13248 20.6608 9.35075C20.8791 9.56795 21.0036 9.87032 21.0036 10.1791C21.0036 10.4868 20.8791 10.7892 20.6608 11.0074C20.4425 11.2246 20.1412 11.3503 19.8325 11.3503C19.5248 11.3503 19.2224 11.2246 19.0052 11.0074C18.7869 10.7892 18.6613 10.4869 18.6613 10.1791C18.6613 9.87032 18.7868 9.56795 19.0052 9.35075Z" fill="white"/>
</svg>
