<svg width="21" height="23" viewBox="0 0 21 23" xmlns="http://www.w3.org/2000/svg"><g fill="#981314"><path d="M10.333 10.763L1.165 5.557a.679.679 0 0 0-1.015.591v10.363a.68.68 0 0 0 .347.592l9.168 5.119a.679.679 0 0 0 1.01-.593V11.354a.679.679 0 0 0-.343-.59h.001z"/><path d="M10.93 20.472l7.808-4.36V7.315l-7.808 4.434v8.723zm-1.015-9.708l9.167-5.207a.679.679 0 0 1 1.015.591v10.363a.678.678 0 0 1-.348.592l-9.168 5.119a.679.679 0 0 1-1.01-.593V11.354c0-.244.131-.47.344-.59z"/><path d="M10.116 10.78l7.892-4.653-7.896-4.555L2.218 6.12l7.897 4.66zm-9.6-5.264L9.767.187a.685.685 0 0 1 .685 0l9.26 5.34a.686.686 0 0 1 .005 1.185l-9.252 5.454a.685.685 0 0 1-.697 0L.509 6.7a.685.685 0 0 1 .006-1.184z"/></g></svg>