<?xml version="1.0" encoding="UTF-8" standalone="no"?>
<svg
   xmlns:dc="http://purl.org/dc/elements/1.1/"
   xmlns:cc="http://creativecommons.org/ns#"
   xmlns:rdf="http://www.w3.org/1999/02/22-rdf-syntax-ns#"
   xmlns:svg="http://www.w3.org/2000/svg"
   xmlns="http://www.w3.org/2000/svg"
   xmlns:xlink="http://www.w3.org/1999/xlink"
   xmlns:sodipodi="http://sodipodi.sourceforge.net/DTD/sodipodi-0.dtd"
   xmlns:inkscape="http://www.inkscape.org/namespaces/inkscape"
   width="52"
   height="59"
   viewBox="0 0 52 59"
   version="1.1"
   id="svg26"
   sodipodi:docname="lighbulb.svg"
   inkscape:version="0.92.3 (2405546, 2018-03-11)">
  <metadata
     id="metadata30">
    <rdf:RDF>
      <cc:Work
         rdf:about="">
        <dc:format>image/svg+xml</dc:format>
        <dc:type
           rdf:resource="http://purl.org/dc/dcmitype/StillImage" />
      </cc:Work>
    </rdf:RDF>
  </metadata>
  <sodipodi:namedview
     pagecolor="#ffffff"
     bordercolor="#666666"
     borderopacity="1"
     objecttolerance="10"
     gridtolerance="10"
     guidetolerance="10"
     inkscape:pageopacity="0"
     inkscape:pageshadow="2"
     inkscape:window-width="1533"
     inkscape:window-height="845"
     id="namedview28"
     showgrid="false"
     inkscape:zoom="32"
     inkscape:cx="31.479772"
     inkscape:cy="57.19369"
     inkscape:window-x="67"
     inkscape:window-y="27"
     inkscape:window-maximized="1"
     inkscape:current-layer="g24" />
  <defs
     id="defs4">
    <path
       id="a"
       d="M0 .606h8.46v6.002H0z" />
    <path
       id="c"
       d="M.482 0h2.92v9.68H.481z" />
  </defs>
  <g
     fill="none"
     fill-rule="evenodd"
     id="g24">
    <path
       d="M44.5 21.992c.27.005.535-.059.77-.182l5.983-3.204c.719-.39.96-1.244.54-1.911-.417-.669-1.341-.894-2.06-.504l-5.983 3.224c-.588.311-.876.953-.697 1.56.175.605.769 1.028 1.447 1.025v-.008zm-36.287-2.59l-6.011-3.239c-.713-.352-1.598-.116-2.001.533-.403.648-.181 1.476.503 1.873l6.005 3.219c.344.2.76.262 1.153.17a1.49 1.49 0 0 0 .938-.654c.203-.325.254-.714.142-1.079a1.407 1.407 0 0 0-.738-.843l.009.02zm43.08 23.014l-6.008-3.223c-.723-.392-1.652-.167-2.077.501-.424.668-.18 1.527.543 1.92l6.038 3.223c.715.352 1.604.116 2.009-.534.405-.649.183-1.477-.505-1.875v-.012z"
       fill="#263D6C"
       id="path6" />
    <g
       transform="translate(0 39)"
       id="g13"
       style="fill:#263d6c;fill-opacity:1">
      <mask
         id="b"
         fill="#263D6C">
        <use
           xlink:href="#a"
           id="use8" />
      </mask>
    </g>
    <g
       transform="translate(24)"
       id="g20"
       style="fill:#263d6c;fill-opacity:1">
      <mask
         id="d"
         fill="#263D6C">
        <use
           xlink:href="#c"
           id="use15" />
      </mask>
      <path
         d="M1.943 9.68A1.46 1.46 0 0 0 3.4 8.22V1.46a1.46 1.46 0 1 0-2.92 0v6.76a1.461 1.461 0 0 0 1.462 1.46"
         fill="#263D6C"
         mask="url(#d)"
         id="path18"
         style="fill:#263d6c;fill-opacity:1" />
    </g>
    <path
       d="M31.593 48H20.407C19.63 48 19 48.671 19 49.501c0 .827.63 1.499 1.407 1.499h11.186C32.37 51 33 50.328 33 49.501c0-.83-.63-1.501-1.407-1.501m-8.556 8.54v.801A1.65 1.65 0 0 0 24.672 59h2.335c.9-.002 1.63-.742 1.631-1.653v-.774C30.518 56.47 31.99 54.904 32 53H20c.01 1.776 1.3 3.281 3.037 3.54zm2.798-36.17a9.818 9.818 0 0 0-4.323 1.29c-2.762 1.607-4.198 4.519-4.27 8.566v.002c-.013.77-.656 1.387-1.44 1.387a1.454 1.454 0 0 1-1.015-.434 1.394 1.394 0 0 1-.404-1.006c.113-6.454 3.221-9.558 5.81-11.017a12.631 12.631 0 0 1 5.667-1.594c.795 0 1.442.633 1.442 1.412 0 .782-.647 1.415-1.442 1.415l-.025-.021zm.658-5.37C18.483 15 12 21.532 12 29.58v.003a14.572 14.572 0 0 0 1.338 6.116h-.003a14.566 14.566 0 0 0 2.492 3.757L19.509 45h13.979l3.682-5.544a14.563 14.563 0 0 0 2.77-4.402h-.003A14.562 14.562 0 0 0 41 29.583C41 21.528 34.502 15 26.493 15z"
       fill="#263D6C"
       id="path22" />
    <path
       inkscape:connector-curvature="0"
       style="fill:#263d6c"
       d="m 7.5002646,21.992 c -0.27,0.005 -0.535,-0.059 -0.77,-0.182 L 0.74726457,18.606 c -0.719,-0.39 -0.96,-1.244 -0.54,-1.911 0.417,-0.669 1.34100003,-0.894 2.06000003,-0.504 l 5.983,3.224 c 0.588,0.311 0.876,0.953 0.697,1.56 -0.175,0.605 -0.769,1.028 -1.447,1.025 z m 36.2870004,-2.59 6.011,-3.239 c 0.713,-0.352 1.598,-0.116 2.001,0.533 0.403,0.648 0.181,1.476 -0.503,1.873 l -6.005,3.219 c -0.344,0.2 -0.76,0.262 -1.153,0.17 a 1.49,1.49 0 0 1 -0.938,-0.654 c -0.203,-0.325 -0.254,-0.714 -0.142,-1.079 a 1.407,1.407 0 0 1 0.738,-0.843 z M 0.70726457,42.416 6.7152646,39.193 c 0.723,-0.392 1.652,-0.167 2.077,0.501 0.424,0.668 0.18,1.527 -0.543,1.92 l -6.038,3.223 c -0.715,0.352 -1.60400003,0.116 -2.00900003,-0.534 -0.405,-0.649 -0.183,-1.477 0.505,-1.875 z"
       id="path6-6" />
    <g
       id="g4618"
       transform="rotate(63.374554,24.419708,24.185467)">
      <path
         id="path6-6-7"
         d="m 10.898734,17.09523 c -0.269609,0.01536 -0.53687,-0.03842 -0.776418,-0.152308 L 4.0207377,13.970944 C 3.2872972,13.608831 3.0136935,12.764711 3.4077808,12.08208 3.7987935,11.397567 4.7134758,11.137264 5.4469163,11.499378 l 6.1023457,2.991963 c 0.599504,0.2882 0.911936,0.918671 0.756368,1.532095 -0.151648,0.611272 -0.728973,1.056761 -1.406589,1.079789 z"
         style="fill:#263d6c"
         inkscape:connector-curvature="0"
         sodipodi:nodetypes="ccccccccc" />
    </g>
  </g>
</svg>
