<svg width="31" height="30" viewBox="0 0 31 30" fill="none" xmlns="http://www.w3.org/2000/svg">
<g id="LinkedIn">
<mask id="mask0" mask-type="alpha" maskUnits="userSpaceOnUse" x="0" y="0" width="31" height="30">
<path id="Clip 5" fill-rule="evenodd" clip-rule="evenodd" d="M0.0566406 0H30.1939V30H0.0566406V0Z" fill="white"/>
</mask>
<g mask="url(#mask0)">
<path id="Fill 4" fill-rule="evenodd" clip-rule="evenodd" d="M23.7362 21.7119H20.3966V16.361C20.3966 15.0163 19.9131 14.0991 18.7047 14.0991C17.7821 14.0991 17.2325 14.7177 16.9911 15.3151C16.903 15.5287 16.8812 15.8273 16.8812 16.1262V21.7119H13.5414L13.5415 21.7118C13.5415 21.7118 13.5853 12.6482 13.5415 11.7096H16.8813V13.1265C17.325 12.4449 18.1185 11.4749 19.8912 11.4749C22.0885 11.4749 23.7362 12.9044 23.7362 15.9768V21.7119ZM10.0234 10.3433H10.0017C8.88088 10.3433 8.15618 9.57525 8.15618 8.61549C8.15618 7.63401 8.90316 6.88728 10.0456 6.88728C11.1881 6.88728 11.8913 7.63401 11.913 8.61549C11.913 9.57525 11.1881 10.3433 10.0234 10.3433ZM8.35319 21.7119H11.6929V11.7097H8.35319V21.7119ZM15.1253 0C6.80317 0 0.0566406 6.7158 0.0566406 15C0.0566406 23.2843 6.80317 30 15.1253 30C23.4475 30 30.1939 23.2843 30.1939 15C30.1939 6.7158 23.4475 0 15.1253 0Z" fill="white"/>
</g>
</g>
</svg>
