<svg width="209" height="80" viewBox="0 0 209 80" fill="none" xmlns="http://www.w3.org/2000/svg">
<g id="OWT_logo_rgb">
<g id="Layer_1">
<g id="Group">
<path id="Shape" fill-rule="evenodd" clip-rule="evenodd" d="M33.7695 23.7036C35.6567 23.4567 37.5439 23.1604 39.4807 22.9135C39.6793 24.0493 39.878 25.1357 40.0766 26.2715C40.3249 26.1727 40.4739 26.1727 40.5236 26.074C43.6026 22.8641 47.5756 22.2221 51.7472 22.469C58.5013 22.9135 63.2192 27.3579 64.4607 34.3703C65.5533 40.6419 64.2621 46.469 60.1401 51.4567C57.359 54.8147 53.5847 56.2468 49.3138 56.1974C47.4266 56.1974 45.4898 55.9011 43.6523 55.5061C42.6591 55.3085 41.7651 54.5678 40.7222 54.074C40.7222 56.79 40.7222 59.5555 40.7222 62.2715C40.7222 65.0369 40.7222 67.753 40.7222 70.5678C38.8351 70.5678 36.7989 70.5678 34.7628 70.5678C35.5077 54.9629 36.0043 39.3579 33.7695 23.7036ZM40.6726 49.1851C40.6726 49.5801 40.9705 50.1234 41.3182 50.3703C42.808 51.5061 44.5462 51.9999 46.4334 52.148C50.7043 52.4937 54.3793 51.4567 56.6141 47.5061C59.4449 42.5678 59.7428 37.432 57.3094 32.2468C56.0182 29.4814 53.833 27.5555 50.7043 27.0616C48.3702 26.7159 46.0361 26.8147 43.8509 27.8024C42.7584 28.2962 41.7651 29.0369 40.8216 29.8271C40.2753 30.2715 40.1263 30.8641 40.1759 31.5555L40.6726 49.1851Z" fill="#E64B16"/>
<path id="Shape_2" fill-rule="evenodd" clip-rule="evenodd" d="M71.2647 40.0493C71.215 45.1357 75.2873 49.9752 80.5018 51.111C84.8224 51.9999 89.0934 51.4567 93.3146 50.4691C93.4636 50.4197 93.6126 50.4197 93.9106 50.3209C93.7119 51.8518 93.563 53.2839 93.3146 54.716C93.265 54.9135 92.818 55.1604 92.52 55.2592C89.0437 56.2468 85.5177 56.395 81.942 56.2468C79.0119 56.0987 76.1812 55.5555 73.6484 54.0246C67.987 50.6666 65.6528 45.5308 65.8515 39.111C66.0005 34.9629 67.242 31.2098 69.7748 27.8518C73.0525 23.5555 77.4724 21.9258 82.7863 22.3209C84.0775 22.4197 85.4184 22.6666 86.6599 23.0616C91.1295 24.5925 93.4636 27.9505 94.2582 32.395C94.6555 34.716 94.5562 37.1357 94.7052 39.6542C86.7592 39.8024 79.0119 39.9011 71.2647 40.0493ZM89.0934 35.8518C88.7954 34.2221 88.6961 32.7407 88.2491 31.3086C87.4545 28.5925 85.5674 27.0123 82.7366 26.6172C81.942 26.5184 81.0978 26.4691 80.3032 26.4691C75.3369 26.6666 71.0163 31.4567 71.513 36.2468L89.0934 35.8518Z" fill="#E64B16"/>
<path id="Shape_3" fill-rule="evenodd" clip-rule="evenodd" d="M32.1311 38.5183C32.0815 43.1602 31.0882 47.3578 28.0588 50.9133C21.7021 58.4195 9.93217 58.5183 3.77407 51.1109C1.68826 48.5923 0.794337 45.6294 0.546026 42.4689C0.198391 37.4318 0.893661 32.6417 4.07204 28.4936C10.1805 20.4936 22.2484 19.9997 28.6051 27.4565C31.3366 30.7158 32.0815 34.5676 32.1311 38.5183ZM26.3703 39.6541C26.3703 35.9504 25.4268 32.7405 23.5396 30.0244C20.0632 24.938 12.4153 24.938 8.93893 29.9751C5.1646 35.4565 5.31359 43.8516 9.33622 49.1849C12.7132 53.6788 19.8646 53.7775 23.3409 49.3331C25.5261 46.4689 26.42 43.2096 26.3703 39.6541Z" fill="#E64B16"/>
<path id="Shape_4" fill-rule="evenodd" clip-rule="evenodd" d="M96.8401 55.3085C97.2374 44.79 98.1809 34.2715 95.8965 23.753C97.883 23.4567 99.7701 23.2097 101.707 22.9134C101.955 24.2962 102.154 25.6295 102.402 27.111C102.849 26.7653 103.097 26.5678 103.395 26.3702C107.766 22.6665 112.732 21.6789 118.195 23.0122C122.416 24.0492 124.75 26.8641 125.048 31.3579C125.197 33.432 125.048 35.4567 125.098 37.5307C125.147 43.0616 125.197 48.5925 125.197 54.1233C125.197 54.469 125.197 54.8641 125.197 55.3085C123.111 55.3085 121.125 55.3085 119.039 55.3085C119.138 54.0246 119.238 52.79 119.287 51.5554C119.486 46.4196 119.685 41.2838 119.734 36.1974C119.734 34.7159 119.536 33.1851 119.188 31.753C118.393 28.79 116.109 27.6048 113.278 27.3085C109.653 26.8641 106.375 27.8517 103.445 30.0739C102.899 30.5184 102.651 30.9628 102.651 31.6542C102.7 39.111 102.75 46.6171 102.75 54.0739C102.75 54.469 102.75 54.8641 102.75 55.3579C100.813 55.3085 98.8762 55.3085 96.8401 55.3085Z" fill="#E64B16"/>
<path id="Shape_5" fill-rule="evenodd" clip-rule="evenodd" d="M131.506 0.0493164C132.052 0.0493164 132.549 0.0493164 133.095 0.0493164C133.095 26.6172 133.095 53.1851 133.095 79.8518C132.598 79.8518 132.102 79.9012 131.506 79.9012C131.506 53.2839 131.506 26.716 131.506 0.0493164Z" fill="white"/>
</g>
</g>
<g id="Layer_2">
<g id="Group_2">
<path id="Shape_6" d="M150.569 27.2398C150.569 27.5924 150.127 28.9022 149.194 31.169C148.261 33.4358 147.82 34.7959 147.82 35.1989H146.641C146.641 34.9974 146.347 34.1914 145.806 32.781C145.119 31.0682 144.677 29.7081 144.382 28.7007H144.333C144.088 29.6578 143.646 31.0179 143.008 32.781C142.517 34.1914 142.271 34.9974 142.271 35.1989H141.142C141.142 34.8967 140.7 33.5366 139.816 31.169C138.932 28.8014 138.49 27.4917 138.49 27.2398H139.963C139.963 27.5421 140.258 28.5999 140.896 30.4134C141.535 32.2268 141.829 33.2847 141.829 33.5869H141.927C141.927 33.1336 142.271 32.0253 142.909 30.2623C143.548 28.4992 143.891 27.4917 143.891 27.1895H145.266C145.266 27.4413 145.61 28.4992 146.297 30.4134C146.985 32.2772 147.329 33.3351 147.329 33.5869H147.427C147.427 33.2343 147.721 32.2268 148.311 30.4638C148.9 28.751 149.194 27.6428 149.194 27.1895H150.569V27.2398Z" fill="white"/>
<path id="Shape_7" fill-rule="evenodd" clip-rule="evenodd" d="M157.787 31.2194C157.836 30.8164 157.836 30.5142 157.836 30.2623C157.836 29.2549 157.59 28.4489 157.001 27.794C156.461 27.1392 155.626 26.8369 154.595 26.8369C153.417 26.8369 152.533 27.2903 151.846 28.1466C151.158 29.003 150.814 30.0608 150.814 31.2698C150.814 32.378 151.207 33.3351 151.944 34.1411C152.68 34.9471 153.761 35.3501 155.185 35.3501C156.167 35.3501 156.952 35.2493 157.492 35.0479L157.64 33.8893C156.952 34.0908 156.167 34.1915 155.332 34.1915C154.448 34.1915 153.662 33.9396 153.122 33.3855C152.533 32.8314 152.238 32.1262 152.189 31.3202L157.787 31.2194ZM154.546 27.9451C155.823 27.9451 156.461 28.7511 156.461 30.3127L152.238 30.3631C152.484 28.7511 153.22 27.9451 154.546 27.9451Z" fill="white"/>
<path id="Shape_8" fill-rule="evenodd" clip-rule="evenodd" d="M165.104 34.0403C165.792 33.1335 166.135 32.0757 166.135 30.8667C166.135 29.8089 165.792 28.8518 165.202 27.9954C164.613 27.2398 163.778 26.8368 162.796 26.8368C161.618 26.8368 160.783 27.139 160.243 27.7939H160.194C160.194 25.7286 160.243 24.2174 160.292 23.2603L158.672 23.361C158.819 25.0233 158.917 26.8872 158.917 28.9021C158.917 31.169 158.868 33.2343 158.819 35.1485H159.998L160.194 34.8462H160.243C160.636 35.1989 161.323 35.4004 162.305 35.4004C163.484 35.4004 164.417 34.947 165.104 34.0403ZM164.024 28.9525C164.466 29.5066 164.662 30.2118 164.662 31.0682C164.662 32.0253 164.466 32.7809 164.024 33.4358C163.582 34.0906 162.895 34.3929 162.011 34.3929C161.323 34.3929 160.734 34.2418 160.292 33.8388C160.194 32.5794 160.145 30.9675 160.145 29.0029C160.587 28.3984 161.274 28.0961 162.256 28.0961C162.993 28.0961 163.582 28.348 164.024 28.9525Z" fill="white"/>
<path id="Shape_9" d="M143.695 50.1601L143.597 51.2683C143.155 51.4194 142.762 51.5202 142.369 51.5202C141.387 51.5202 140.7 51.2683 140.356 50.7646C140.012 50.2608 139.816 49.3541 139.816 48.0444C139.816 47.188 139.816 46.0798 139.816 44.7197C139.521 44.7197 139.079 44.7197 138.49 44.7701L138.539 43.5611C139.079 43.6115 139.521 43.6115 139.914 43.6115C139.914 43.2588 139.963 42.5032 140.012 41.2439L141.289 41.0928C141.191 42.2514 141.142 43.1077 141.142 43.6115C141.682 43.6115 142.467 43.5611 143.499 43.5107L143.45 44.7701C142.467 44.7197 141.682 44.7197 141.093 44.7197C141.093 45.576 141.093 46.5332 141.093 47.5406C141.093 48.6992 141.191 49.4548 141.436 49.8075C141.682 50.1601 142.124 50.3616 142.762 50.3616C142.958 50.3112 143.253 50.2608 143.695 50.1601Z" fill="white"/>
<path id="Shape_10" fill-rule="evenodd" clip-rule="evenodd" d="M150.814 47.3391C150.863 46.9361 150.863 46.6338 150.863 46.382C150.863 45.3745 150.618 44.5685 150.029 43.9136C149.488 43.2588 148.654 42.9565 147.623 42.9565C146.444 42.9565 145.56 43.4099 144.873 44.2663C144.186 45.1226 143.842 46.1805 143.842 47.3894C143.842 48.4977 144.235 49.4548 144.971 50.2608C145.708 51.0667 146.788 51.4697 148.212 51.4697C149.194 51.4697 149.98 51.369 150.52 51.1675L150.667 50.0089C149.98 50.2104 149.194 50.3111 148.359 50.3111C147.475 50.3111 146.69 50.0593 146.15 49.5051C145.56 48.951 145.266 48.2458 145.217 47.4398L150.814 47.3391ZM147.623 44.0648C148.899 44.0648 149.538 44.8707 149.538 46.4323L145.315 46.4827C145.56 44.8707 146.297 44.0648 147.623 44.0648Z" fill="white"/>
<path id="Shape_11" d="M158.033 50.0087L157.935 51.1169C157.493 51.3688 156.903 51.5199 156.167 51.5199C154.743 51.5199 153.663 51.1169 152.926 50.311C152.19 49.505 151.797 48.5479 151.797 47.4397C151.797 46.2307 152.19 45.2232 152.975 44.3668C153.761 43.5105 154.792 43.0571 156.069 43.0571C156.707 43.0571 157.247 43.1075 157.64 43.2586L157.444 44.5683C156.854 44.3668 156.314 44.2661 155.725 44.2661C154.939 44.2661 154.35 44.518 153.859 45.0721C153.368 45.6262 153.172 46.3314 153.172 47.1374C153.172 48.0441 153.466 48.7997 154.006 49.4042C154.547 50.0087 155.332 50.311 156.314 50.311C156.756 50.3613 157.296 50.2102 158.033 50.0087Z" fill="white"/>
<path id="Shape_12" d="M165.545 51.3183H164.072C164.17 49.8575 164.268 48.2959 164.268 46.5832C164.268 45.6765 164.121 45.072 163.777 44.7697C163.434 44.4675 162.992 44.3164 162.402 44.3164C161.568 44.3164 160.831 44.6186 160.095 45.1727C160.095 48.1951 160.095 50.2605 160.144 51.3687H158.72C158.769 49.9079 158.769 47.8425 158.769 45.1223C158.769 42.7548 158.671 40.9413 158.523 39.5812L160.095 39.4805C160.046 41.1932 160.046 42.7548 160.046 44.2156H160.095C160.929 43.46 161.813 43.1074 162.795 43.1074C163.679 43.1074 164.367 43.3089 164.858 43.7119C165.349 44.1149 165.594 44.8705 165.594 45.878C165.594 45.9787 165.594 46.1802 165.594 46.4824C165.594 46.7847 165.594 47.0869 165.594 47.2884C165.496 48.1448 165.496 49.4545 165.545 51.3183Z" fill="white"/>
<path id="Shape_13" d="M173.402 51.3183H171.929C172.027 49.8574 172.125 48.2455 172.125 46.5328C172.125 45.6764 171.978 45.0719 171.634 44.7697C171.291 44.4674 170.8 44.3163 170.161 44.3163C169.376 44.3163 168.688 44.6186 168.05 45.1727C168.05 47.0869 168.05 49.1522 168.099 51.3687H166.626C166.724 49.4544 166.773 48.0944 166.773 47.238C166.773 45.9283 166.675 44.6689 166.43 43.46L167.854 43.2585L168.001 44.2659H168.05C168.836 43.5103 169.72 43.1577 170.652 43.1577C171.536 43.1577 172.273 43.3592 172.764 43.7622C173.255 44.1652 173.5 44.9208 173.5 45.9283C173.5 46.029 173.5 46.2305 173.5 46.5328C173.5 46.835 173.5 47.0365 173.5 47.1373C173.353 48.0944 173.402 49.4544 173.402 51.3183Z" fill="white"/>
<path id="Shape_14" fill-rule="evenodd" clip-rule="evenodd" d="M181.159 50.4118C181.945 49.6058 182.338 48.4976 182.338 47.0871C182.338 45.7774 181.945 44.7699 181.306 44.0647C180.57 43.3595 179.735 43.0068 178.704 43.0068C177.624 43.0068 176.642 43.4098 175.856 44.2158C175.071 45.0218 174.678 46.13 174.678 47.5909C174.678 48.8502 175.021 49.8577 175.758 50.5629C176.494 51.2682 177.329 51.6208 178.36 51.6208C179.441 51.6208 180.374 51.2178 181.159 50.4118ZM180.275 45.0722C180.717 45.727 180.914 46.533 180.914 47.3894C180.914 48.2457 180.717 48.951 180.275 49.6058C179.833 50.2607 179.244 50.5629 178.459 50.5629C177.673 50.5629 177.084 50.2103 176.642 49.5554C176.2 48.9006 176.003 48.0946 176.003 47.2382C176.003 46.4323 176.2 45.6767 176.642 45.0218C177.084 44.3669 177.673 44.0647 178.459 44.0647C179.244 44.0647 179.833 44.4173 180.275 45.0722Z" fill="white"/>
<path id="Shape_15" d="M184.597 51.3184H183.026C183.124 49.4546 183.173 47.3892 183.173 45.072C183.173 42.8052 183.075 40.9918 182.928 39.5309L184.597 39.4302C184.499 40.9414 184.45 42.8052 184.45 45.0217C184.45 47.3389 184.499 49.4546 184.597 51.3184Z" fill="white"/>
<path id="Shape_16" fill-rule="evenodd" clip-rule="evenodd" d="M192.108 50.4118C192.894 49.6058 193.287 48.4976 193.287 47.0871C193.287 45.7774 192.943 44.7699 192.256 44.0647C191.519 43.3595 190.684 43.0068 189.653 43.0068C188.573 43.0068 187.591 43.4098 186.805 44.2158C186.02 45.0218 185.627 46.13 185.627 47.5909C185.627 48.8502 185.971 49.8577 186.707 50.5629C187.444 51.2682 188.278 51.6208 189.31 51.6208C190.39 51.6208 191.323 51.2178 192.108 50.4118ZM191.225 45.0722C191.666 45.727 191.863 46.533 191.863 47.3894C191.863 48.2457 191.666 48.951 191.225 49.6058C190.783 50.2607 190.193 50.5629 189.408 50.5629C188.622 50.5629 188.033 50.2103 187.591 49.5554C187.149 48.9006 186.953 48.0946 186.953 47.2382C186.953 46.4323 187.149 45.6767 187.591 45.0218C188.033 44.3669 188.622 44.0647 189.408 44.0647C190.193 44.0647 190.783 44.4173 191.225 45.0722Z" fill="white"/>
<path id="Shape_17" fill-rule="evenodd" clip-rule="evenodd" d="M201.831 42.3014L201.684 43.46C200.653 43.46 200.113 43.6112 200.014 43.9638V44.0645C200.358 44.5179 200.554 44.9712 200.554 45.5757C200.554 46.4321 200.26 47.1877 199.72 47.7418C199.18 48.2959 198.296 48.5982 197.117 48.5982C196.577 48.5982 196.184 48.5478 195.89 48.447C195.644 48.6485 195.497 48.9004 195.497 49.1523C195.497 49.5049 195.644 49.7568 195.988 49.8575C196.381 50.0086 197.216 50.1094 198.492 50.1094C200.554 50.1094 201.586 50.8146 201.586 52.2251C201.586 53.2326 201.193 54.0385 200.358 54.6934C199.572 55.3483 198.492 55.7009 197.216 55.7009C195.89 55.7009 194.957 55.449 194.417 54.9453C193.877 54.4415 193.582 53.8874 193.582 53.1822C193.582 52.5777 193.729 52.074 193.975 51.671C194.269 51.268 194.613 51.0665 195.006 50.9657V50.9154C194.564 50.7139 194.368 50.3109 194.368 49.7064C194.368 49.1523 194.662 48.6989 195.202 48.2455V48.1952C194.908 48.0441 194.662 47.7922 194.368 47.4396C194.073 47.0869 193.975 46.684 193.975 46.1298C193.975 45.2231 194.269 44.5179 194.81 43.9638C195.35 43.4097 196.184 43.1074 197.265 43.1074C198.148 43.1074 198.836 43.2585 199.327 43.6112H199.425C199.622 42.654 200.063 42.2007 200.8 42.2007C201.291 42.2007 201.635 42.2007 201.831 42.3014ZM200.407 52.7288C200.407 52.2251 200.211 51.8221 199.867 51.6206C199.474 51.4191 198.787 51.3184 197.756 51.3184C197.068 51.3184 196.43 51.268 195.841 51.2176C195.153 51.5702 194.859 52.0236 194.859 52.6784C194.859 54.0385 195.743 54.7438 197.461 54.7438C198.345 54.7438 199.081 54.5423 199.622 54.1897C200.113 53.7867 200.407 53.2829 200.407 52.7288ZM198.64 44.4675C199.032 44.8201 199.229 45.2735 199.229 45.878C199.229 46.4321 199.081 46.8855 198.738 47.1877C198.345 47.4899 197.903 47.6411 197.363 47.6411C196.774 47.6411 196.283 47.4899 195.89 47.1877C195.497 46.8351 195.301 46.3817 195.301 45.7772C195.301 45.1727 195.448 44.7194 195.841 44.4171C196.184 44.1149 196.675 43.9638 197.216 43.9638C197.805 43.9638 198.247 44.1653 198.64 44.4675Z" fill="white"/>
<path id="Shape_18" d="M208.656 43.3595C208.656 43.7121 208.263 44.8707 207.429 46.7849C206.496 48.951 205.907 50.5125 205.661 51.4193C205.268 52.8801 204.925 53.7868 204.63 54.1898C204.188 54.7439 203.402 54.9958 202.322 54.9958L202.273 53.8372C202.961 53.8372 203.501 53.5854 203.992 53.132C204.483 52.6786 204.679 52.0741 204.679 51.3689C204.679 50.7644 204.188 49.2532 203.157 46.936C202.126 44.6188 201.635 43.4098 201.635 43.3595H203.304C203.304 43.5106 203.648 44.5181 204.335 46.3819C205.023 48.2457 205.366 49.4043 205.366 49.8577H205.465C205.465 49.5051 205.759 48.4472 206.349 46.6841C206.938 44.921 207.232 43.8128 207.232 43.3091H208.656V43.3595Z" fill="white"/>
</g>
</g>
</g>
</svg>
