<svg width="209" height="80" viewBox="0 0 209 80" xmlns="http://www.w3.org/2000/svg"><g fill="none" fill-rule="evenodd"><path d="M33.77 23.704c1.887-.247 3.775-.544 5.711-.79.199 1.135.398 2.222.596 3.358.249-.1.398-.1.447-.198 3.08-3.21 7.052-3.852 11.224-3.605 6.754.445 11.472 4.889 12.713 11.901 1.093 6.272-.198 12.1-4.32 17.087-2.781 3.358-6.556 4.79-10.826 4.74-1.888 0-3.824-.296-5.662-.69-.993-.198-1.887-.94-2.93-1.433v16.494h-5.96c.745-15.605 1.242-31.21-.993-46.864zm6.903 25.481c0 .395.298.938.646 1.185 1.49 1.136 3.228 1.63 5.115 1.778 4.271.346 7.946-.691 10.18-4.642 2.832-4.938 3.13-10.074.696-15.26-1.291-2.765-3.476-4.69-6.605-5.184-2.334-.346-4.668-.247-6.853.74-1.093.494-2.086 1.235-3.03 2.025-.546.445-.695 1.037-.645 1.729l.496 17.63zm30.592-9.135c-.05 5.086 4.023 9.925 9.237 11.061 4.32.889 8.592.346 12.813-.642.15-.05.298-.05.596-.148-.199 1.53-.348 2.963-.596 4.395-.05.198-.496.444-.794.543-3.477.988-7.003 1.136-10.578.988-2.93-.148-5.761-.691-8.294-2.222-5.662-3.358-7.996-8.494-7.797-14.914.149-4.148 1.39-7.901 3.923-11.26 3.278-4.295 7.698-5.925 13.012-5.53a17.38 17.38 0 0 1 3.873.74c4.47 1.532 6.804 4.89 7.599 9.334.397 2.321.298 4.74.447 7.26-7.946.147-15.694.246-23.44.394zm17.829-4.198c-.298-1.63-.397-3.111-.844-4.543-.795-2.716-2.682-4.297-5.513-4.692a20.115 20.115 0 0 0-2.433-.148c-4.967.198-9.287 4.988-8.79 9.778l17.58-.395zm-56.963 2.667c-.05 4.641-1.043 8.839-4.072 12.395-6.357 7.506-18.127 7.605-24.285.197C1.69 48.593.794 45.63.546 42.47.2 37.432.894 32.642 4.072 28.494c6.109-8 18.177-8.494 24.533-1.037 2.732 3.259 3.477 7.11 3.526 11.062zm-5.76 1.135c0-3.703-.944-6.913-2.831-9.63-3.476-5.086-11.124-5.086-14.6-.049-3.775 5.482-3.626 13.877.396 19.21 3.378 4.494 10.529 4.593 14.005.148 2.185-2.864 3.08-6.123 3.03-9.679zm70.47 15.655c.397-10.519 1.341-21.037-.943-31.556 1.986-.296 3.873-.543 5.81-.84.248 1.383.447 2.717.695 4.198.447-.346.696-.543.994-.74 4.37-3.704 9.336-4.692 14.799-3.359 4.221 1.037 6.555 3.852 6.853 8.346.15 2.074 0 4.099.05 6.173.05 5.53.1 11.062.1 16.592v1.186h-6.159c.1-1.284.199-2.519.248-3.753.2-5.136.398-10.272.447-15.358 0-1.482-.198-3.013-.546-4.445-.794-2.963-3.079-4.148-5.91-4.444-3.625-.445-6.903.543-9.833 2.765-.546.445-.794.889-.794 1.58.05 7.457.099 14.963.099 22.42v1.284c-1.937-.05-3.874-.05-5.91-.05z" fill="#E41919"/><path d="M131.505.05h1.59v79.802c-.497 0-.994.05-1.59.05V.048z" fill="#3B3B3B"/><g fill="#3B3B3B" fill-rule="nonzero"><path d="M150.569 27.24c0 .352-.442 1.662-1.375 3.929s-1.375 3.627-1.375 4.03h-1.178c0-.202-.295-1.008-.835-2.418a44.118 44.118 0 0 1-1.424-4.08h-.049c-.245.957-.687 2.317-1.326 4.08-.49 1.41-.736 2.216-.736 2.418h-1.13c0-.303-.441-1.663-1.325-4.03-.884-2.368-1.326-3.677-1.326-3.93h1.473c0 .303.295 1.36.933 3.174.638 1.814.933 2.872.933 3.174h.098c0-.454.344-1.562.982-3.325.638-1.763.982-2.77.982-3.073h1.375c0 .252.344 1.31 1.031 3.224.688 1.864 1.031 2.922 1.031 3.174h.098c0-.353.295-1.36.884-3.123.59-1.713.884-2.821.884-3.275h1.375v.05zm7.267 3.022c0 .252 0 .554-.05.957l-5.597.101c.05.806.344 1.511.933 2.065.54.554 1.326.806 2.21.806.835 0 1.62-.1 2.308-.302l-.148 1.159c-.54.201-1.325.302-2.307.302-1.424 0-2.505-.403-3.241-1.21-.737-.805-1.13-1.762-1.13-2.87 0-1.21.344-2.267 1.032-3.124.687-.856 1.57-1.31 2.75-1.31 1.03 0 1.865.303 2.405.958.59.655.835 1.46.835 2.468zm-1.375.05c0-1.561-.638-2.367-1.915-2.367-1.326 0-2.062.806-2.308 2.418l4.223-.05zm9.673.555c0 1.209-.344 2.266-1.03 3.173-.688.907-1.621 1.36-2.8 1.36-.982 0-1.67-.201-2.062-.554h-.05l-.196.302h-1.178c.05-1.914.098-3.98.098-6.246 0-2.015-.098-3.879-.245-5.541l1.62-.1a90.753 90.753 0 0 0-.098 4.533h.049c.54-.655 1.375-.957 2.553-.957.982 0 1.817.403 2.406 1.158.59.857.933 1.814.933 2.872zm-1.473.201c0-.856-.196-1.562-.638-2.116-.442-.604-1.031-.856-1.768-.856-.982 0-1.67.302-2.111.907 0 1.964.049 3.576.147 4.836.442.403 1.031.554 1.719.554.883 0 1.57-.302 2.013-.957.442-.655.638-1.41.638-2.368zM143.695 50.16l-.098 1.108c-.442.151-.835.252-1.228.252-.982 0-1.67-.252-2.013-.756-.344-.503-.54-1.41-.54-2.72V44.72c-.295 0-.737 0-1.326.05l.049-1.208c.54.05.982.05 1.375.05 0-.352.049-1.108.098-2.367l1.277-.152c-.098 1.16-.148 2.015-.148 2.52.54 0 1.326-.051 2.357-.102l-.049 1.26c-.982-.05-1.767-.05-2.357-.05v2.82c0 1.159.099 1.915.344 2.267.246.353.687.554 1.326.554.196-.05.49-.1.933-.201zm7.169-3.778c0 .252 0 .554-.05.957l-5.597.1c.049.807.344 1.512.933 2.066.54.554 1.326.806 2.21.806.834 0 1.62-.1 2.307-.302l-.147 1.158c-.54.202-1.326.303-2.308.303-1.424 0-2.504-.403-3.24-1.21-.737-.805-1.13-1.763-1.13-2.87 0-1.21.344-2.268 1.031-3.124.688-.856 1.571-1.31 2.75-1.31 1.031 0 1.866.303 2.406.957.59.655.835 1.461.835 2.469zm-1.326.05c0-1.561-.638-2.367-1.915-2.367-1.326 0-2.062.806-2.308 2.417l4.223-.05zm8.494 3.577l-.098 1.108c-.442.252-1.03.403-1.767.403-1.424 0-2.505-.403-3.241-1.21-.737-.805-1.13-1.762-1.13-2.87 0-1.21.393-2.217 1.179-3.073.786-.857 1.817-1.31 3.093-1.31.639 0 1.179.05 1.572.202l-.197 1.31a5.15 5.15 0 0 0-1.718-.303c-.786 0-1.375.252-1.866.806-.491.554-.688 1.26-.688 2.065 0 .907.295 1.663.835 2.267.54.605 1.326.907 2.308.907.442.05.982-.1 1.718-.302zm7.513 1.309h-1.473c.098-1.46.196-3.022.196-4.735 0-.906-.147-1.511-.49-1.813-.344-.302-.786-.454-1.376-.454-.834 0-1.57.303-2.307.857 0 3.022 0 5.088.049 6.196h-1.424c.049-1.461.049-3.526.049-6.247 0-2.367-.098-4.18-.246-5.54l1.572-.101c-.05 1.712-.05 3.274-.05 4.735h.05c.834-.756 1.718-1.109 2.7-1.109.884 0 1.572.202 2.063.605.49.403.736 1.159.736 2.166v1.41c-.098.857-.098 2.167-.049 4.03zm7.856 0h-1.473c.098-1.46.197-3.072.197-4.785 0-.856-.148-1.461-.491-1.763-.344-.302-.835-.454-1.473-.454-.786 0-1.474.303-2.112.857 0 1.914 0 3.98.05 6.196h-1.474c.098-1.914.148-3.275.148-4.13 0-1.31-.099-2.57-.344-3.779l1.424-.201.147 1.007h.05c.785-.756 1.669-1.108 2.602-1.108.883 0 1.62.201 2.11.604.492.403.737 1.159.737 2.166v1.209c-.147.957-.098 2.318-.098 4.181zm8.937-4.231c0 1.41-.393 2.519-1.179 3.325-.785.806-1.718 1.209-2.798 1.209-1.032 0-1.866-.353-2.603-1.058-.736-.705-1.08-1.713-1.08-2.972 0-1.461.393-2.57 1.178-3.375a3.883 3.883 0 0 1 2.848-1.21c1.031 0 1.866.353 2.603 1.059.638.705 1.03 1.712 1.03 3.022zm-1.424.302c0-.856-.197-1.662-.639-2.317-.441-.655-1.03-1.007-1.816-1.007s-1.375.302-1.817.957c-.442.655-.638 1.41-.638 2.216 0 .856.196 1.662.638 2.317.442.655 1.031 1.008 1.817 1.008.785 0 1.375-.302 1.816-.957.442-.655.639-1.36.639-2.217zm3.682 3.929h-1.57c.097-1.863.146-3.929.146-6.246 0-2.267-.098-4.08-.245-5.541l1.67-.1c-.099 1.51-.148 3.374-.148 5.59 0 2.318.05 4.434.147 6.297zm8.691-4.231c0 1.41-.392 2.519-1.178 3.325-.786.806-1.719 1.209-2.799 1.209-1.03 0-1.866-.353-2.602-1.058-.737-.705-1.08-1.713-1.08-2.972 0-1.461.392-2.57 1.178-3.375a3.883 3.883 0 0 1 2.848-1.21c1.031 0 1.866.353 2.602 1.059.688.705 1.031 1.712 1.031 3.022zm-1.423.302c0-.856-.197-1.662-.639-2.317-.442-.655-1.031-1.007-1.817-1.007-.785 0-1.374.302-1.816.957-.442.655-.639 1.41-.639 2.216 0 .856.197 1.662.639 2.317.442.655 1.03 1.008 1.816 1.008s1.375-.302 1.817-.957c.442-.655.639-1.36.639-2.217zm9.967-5.088l-.147 1.16c-1.031 0-1.571.15-1.67.503v.1c.344.454.54.907.54 1.512 0 .856-.294 1.612-.834 2.166-.54.554-1.424.856-2.603.856-.54 0-.933-.05-1.227-.15-.246.2-.393.452-.393.704 0 .353.147.605.491.706.393.15 1.228.251 2.504.251 2.063 0 3.094.706 3.094 2.116 0 1.008-.393 1.814-1.228 2.468-.786.655-1.866 1.008-3.142 1.008-1.326 0-2.26-.252-2.8-.756-.54-.503-.834-1.058-.834-1.763 0-.604.147-1.108.393-1.511a1.759 1.759 0 0 1 1.031-.705v-.05c-.442-.202-.638-.605-.638-1.21 0-.554.294-1.007.834-1.46v-.05c-.294-.152-.54-.404-.834-.756-.295-.353-.393-.756-.393-1.31 0-.907.294-1.612.835-2.166.54-.554 1.374-.857 2.455-.857.884 0 1.57.152 2.062.504h.098c.197-.957.638-1.41 1.375-1.41.491 0 .835 0 1.031.1zm-1.424 10.428c0-.504-.196-.907-.54-1.108-.393-.202-1.08-.303-2.111-.303-.688 0-1.326-.05-1.915-.1-.688.352-.982.806-.982 1.46 0 1.36.884 2.066 2.602 2.066.884 0 1.62-.202 2.16-.554.492-.403.786-.907.786-1.461zm-1.178-6.851c0-.604-.197-1.058-.59-1.41-.392-.303-.834-.504-1.423-.504-.54 0-1.032.15-1.375.453-.393.302-.54.756-.54 1.36 0 .605.196 1.058.589 1.41.393.303.884.454 1.473.454.54 0 .982-.151 1.375-.453.343-.303.49-.756.49-1.31z"/><path d="M208.656 43.36c0 .352-.393 1.51-1.227 3.425-.933 2.166-1.522 3.727-1.768 4.634-.393 1.461-.736 2.368-1.031 2.77-.442.555-1.228.807-2.308.807l-.049-1.159c.687 0 1.228-.252 1.719-.705.49-.454.687-1.058.687-1.763 0-.605-.491-2.116-1.522-4.433-1.031-2.317-1.522-3.526-1.522-3.577h1.67c0 .151.343 1.159 1.03 3.023.688 1.864 1.031 3.022 1.031 3.476h.099c0-.353.294-1.41.884-3.174.589-1.763.883-2.871.883-3.375h1.424v.05z"/></g></g></svg>