<svg xmlns="http://www.w3.org/2000/svg" width="40" height="39" viewBox="0 0 40 39"><g fill="none"><ellipse cx="20" cy="19.5" fill="#3B3B3B" rx="20" ry="19.5"/><path fill="#FFF" d="M11.4 13c-.775 0-1.4.61-1.4 1.368v10.264c0 .757.625 1.368 1.4 1.368h18.2c.775 0 1.4-.61 1.4-1.368V14.368c0-.757-.625-1.368-1.4-1.368H11.4zm2.44 1.7c.28 0 .558.113.754.31l5.578 5.42c.107.103.537.094.645-.01l5.59-5.41c.392-.38 1.103-.378 1.492.005.39.384.387 1.079-.005 1.46l-3.27 3.164 3.237 2.876c.406.364.438 1.057.066 1.454s-1.082.428-1.488.064l-3.314-2.95-.831.801a2.589 2.589 0 0 1-3.61 0l-.82-.79-3.303 2.94c-.406.363-1.115.333-1.487-.065-.372-.397-.34-1.09.065-1.454l3.238-2.876-3.27-3.164a1.036 1.036 0 0 1-.268-1.077c.218-.413.55-.687 1-.698z"/></g></svg>