<?xml version="1.0" encoding="UTF-8" standalone="no"?>
<svg
   xmlns:dc="http://purl.org/dc/elements/1.1/"
   xmlns:cc="http://creativecommons.org/ns#"
   xmlns:rdf="http://www.w3.org/1999/02/22-rdf-syntax-ns#"
   xmlns:svg="http://www.w3.org/2000/svg"
   xmlns="http://www.w3.org/2000/svg"
   xmlns:sodipodi="http://sodipodi.sourceforge.net/DTD/sodipodi-0.dtd"
   xmlns:inkscape="http://www.inkscape.org/namespaces/inkscape"
   width="30"
   height="23"
   viewBox="0 0 30 23"
   version="1.1"
   id="svg8"
   sodipodi:docname="np-news.svg"
   inkscape:version="0.92.3 (2405546, 2018-03-11)">
  <metadata
     id="metadata14">
    <rdf:RDF>
      <cc:Work
         rdf:about="">
        <dc:format>image/svg+xml</dc:format>
        <dc:type
           rdf:resource="http://purl.org/dc/dcmitype/StillImage" />
      </cc:Work>
    </rdf:RDF>
  </metadata>
  <defs
     id="defs12" />
  <sodipodi:namedview
     pagecolor="#ffffff"
     bordercolor="#666666"
     borderopacity="1"
     objecttolerance="10"
     gridtolerance="10"
     guidetolerance="10"
     inkscape:pageopacity="0"
     inkscape:pageshadow="2"
     inkscape:window-width="1533"
     inkscape:window-height="845"
     id="namedview10"
     showgrid="false"
     inkscape:zoom="10.26087"
     inkscape:cx="15"
     inkscape:cy="11.5"
     inkscape:window-x="67"
     inkscape:window-y="27"
     inkscape:window-maximized="1"
     inkscape:current-layer="g6" />
  <g
     fill="none"
     fill-rule="evenodd"
     id="g6">
    <path
       fill="none"
       d="M-975-645H465v4052H-975z"
       id="path2" />
    <path
       d="M25.815 4.754a.61.61 0 0 1-.184.436.633.633 0 0 1-.443.18h-13.74a.622.622 0 0 1-.627-.615c0-.341.28-.617.627-.617h13.74c.166 0 .326.065.443.18a.61.61 0 0 1 .184.437zM11.448 8.727h4.135a.622.622 0 0 0 .627-.617.622.622 0 0 0-.627-.616h-4.135a.622.622 0 0 0-.627.616c0 .341.28.617.627.617zm0 3.346h4.135a.622.622 0 0 0 .627-.616.622.622 0 0 0-.627-.617h-4.135a.622.622 0 0 0-.627.617c0 .34.28.616.627.616zm0 3.346h4.135a.622.622 0 0 0 .627-.616.623.623 0 0 0-.627-.617h-4.135a.622.622 0 0 0-.627.617c0 .34.28.616.627.616zm13.74 2.114h-13.74a.622.622 0 0 0-.627.616c0 .34.28.616.627.616h13.74a.622.622 0 0 0 .627-.616c0-.34-.28-.616-.627-.616zm.628-9.426v6.69a.61.61 0 0 1-.185.435.633.633 0 0 1-.443.18H19.08a.622.622 0 0 1-.627-.615V8.11c0-.34.28-.616.627-.616h6.108c.166 0 .326.065.443.18a.61.61 0 0 1 .184.436l.001-.003zm-1.255.616h-4.854v5.457h4.853l.001-5.457zM0 19.126V7.11c0-.34.28-.616.627-.616s.628.275.628.616v12.017c.049 1.423 1.238 2.55 2.687 2.55 1.449 0 2.637-1.127 2.686-2.55V.616c0-.34.282-.616.628-.616h22.117c.166 0 .326.065.443.18A.61.61 0 0 1 30 .617v19.06a3.285 3.285 0 0 1-.993 2.353 3.408 3.408 0 0 1-2.397.97H3.943C1.766 22.999.001 21.265 0 19.127zm6.823 2.641H26.61c1.175 0 2.127-.935 2.127-2.09V1.234H7.886v17.893a3.824 3.824 0 0 1-1.06 2.641h-.003zM3.316 7.24v11.878c0 .34.28.616.627.616a.622.622 0 0 0 .628-.616V7.239c0-.34-.28-.616-.628-.616a.622.622 0 0 0-.627.616z"
       fill="#BBB"
       fill-rule="nonzero"
       id="path4"
       style="fill:#ff5454;fill-opacity:1" />
  </g>
</svg>
