<svg width="24" height="21" viewBox="0 0 24 21" xmlns="http://www.w3.org/2000/svg"><path d="M8.108 16.387h-.147L5.066 7.742a3.688 3.688 0 0 1-2.557 1.047c-.268 0-.536-.024-.803-.097l2.58 7.695c-1.655.17-2.97 1.557-2.97 3.262 0 .39.318.705.706.705h8.619c.39 0 .706-.316.706-.705.05-1.802-1.437-3.263-3.238-3.263zM6.135 5.21c0 .634-.17 1.242-.487 1.778h6.306V3.506H5.697a3.68 3.68 0 0 1 .44 1.704h-.002zm-1.192 0a2.411 2.411 0 1 1-4.822 0 2.411 2.411 0 0 1 4.822 0zm16.63 1.559l-2.874 1.095-1.948-1.582V4.309L18.7 2.727l2.874 1.095a1.25 1.25 0 0 0 1.607-.705 1.251 1.251 0 0 0-.706-1.607L18.918.17a1.282 1.282 0 0 0-1.217.195L15.17 2.41h-1.34a.681.681 0 0 0-.681.681v4.432a.68.68 0 0 0 .681.682h1.34l2.53 2.045c.218.17.511.268.779.268.146 0 .292-.025.438-.073l3.53-1.364c.634-.244.95-.949.707-1.608-.22-.63-.95-.947-1.582-.704z" fill="#600B0B" fill-rule="evenodd"/></svg>