<svg width="498" height="499" viewBox="0 0 498 499" fill="none" xmlns="http://www.w3.org/2000/svg">
<path opacity="0.181408" fill-rule="evenodd" clip-rule="evenodd" d="M401.977 107.524C401.977 113.323 397.276 118.024 391.477 118.024C389.85 118.024 388.309 117.654 386.934 116.993L11.8928 489.835L7.31967 489.983L382.011 112.074C381.348 110.698 380.977 109.154 380.977 107.524C380.977 101.725 385.678 97.0243 391.477 97.0243C392.213 97.8266 394.902 100.721 394.902 100.721L386.938 109L387.834 109.96L388.918 111.045L397.635 103.284C397.635 103.284 400.057 105.45 401.977 107.524ZM7.31967 489.983L6.78232 490L6.78232 490.525L7.31967 489.983Z" fill="url(#paint0_linear)"/>
<mask id="path-2-inside-1" fill="white">
<path fill-rule="evenodd" clip-rule="evenodd" d="M394.588 100.884L390.22 96.5154L392.037 92.0292C394.76 85.3082 398.762 79.1799 403.821 73.9848L434.76 42.2138C444.734 31.9718 458.088 25.7006 472.341 24.5659L473.724 24.4557L473.614 25.8389C472.479 40.0915 466.208 53.4458 455.966 63.4196L424.195 94.3587C419 99.4178 412.871 103.42 406.15 106.142L401.664 107.96L397.447 103.742"/>
</mask>
<path d="M390.22 96.5154L389.293 96.14L389.044 96.754L389.513 97.2225L390.22 96.5154ZM434.76 42.2138L434.043 41.5161L434.76 42.2138ZM472.341 24.5659L472.261 23.569L472.261 23.569L472.341 24.5659ZM473.724 24.4557L474.721 24.5351L474.814 23.3658L473.644 23.4589L473.724 24.4557ZM473.614 25.8389L474.611 25.9183L474.611 25.9183L473.614 25.8389ZM455.966 63.4196L456.663 64.1361L455.966 63.4196ZM401.664 107.96L400.957 108.667L401.425 109.135L402.04 108.886L401.664 107.96ZM406.15 106.142L405.775 105.215L406.15 106.142ZM395.295 100.177L390.927 95.8083L389.513 97.2225L393.881 101.591L395.295 100.177ZM391.147 96.8908L392.964 92.4047L391.11 91.6538L389.293 96.14L391.147 96.8908ZM404.537 74.6824L435.476 42.9114L434.043 41.5161L403.104 73.2871L404.537 74.6824ZM435.476 42.9114C445.281 32.8431 458.409 26.6782 472.42 25.5627L472.261 23.569C457.767 24.723 444.186 31.1005 434.043 41.5161L435.476 42.9114ZM472.42 25.5627L473.803 25.4526L473.644 23.4589L472.261 23.569L472.42 25.5627ZM472.727 24.3764L472.617 25.7596L474.611 25.9183L474.721 24.5351L472.727 24.3764ZM472.617 25.7596C471.501 39.7706 465.336 52.8985 455.268 62.7032L456.663 64.1361C467.079 53.9932 473.457 40.4125 474.611 25.9183L472.617 25.7596ZM455.268 62.7032L423.497 93.6423L424.892 95.0751L456.663 64.1361L455.268 62.7032ZM405.775 105.215L401.289 107.033L402.04 108.886L406.526 107.069L405.775 105.215ZM402.371 107.252L398.154 103.035L396.74 104.45L400.957 108.667L402.371 107.252ZM423.497 93.6423C418.395 98.611 412.376 102.542 405.775 105.215L406.526 107.069C413.367 104.298 419.604 100.225 424.892 95.0751L423.497 93.6423ZM392.964 92.4047C395.638 85.8037 399.568 79.7848 404.537 74.6824L403.104 73.2871C397.955 78.575 393.882 84.8128 391.11 91.6538L392.964 92.4047Z" fill="white" mask="url(#path-2-inside-1)"/>
<path d="M377.908 72.1823L398.208 81.5807" stroke="white"/>
<path d="M395.231 86.6784L401.818 93.2646" stroke="white"/>
<path d="M404.833 96.2798L411.571 103.018" stroke="white"/>
<path d="M455.224 29.2907L468.985 43.0518" stroke="white"/>
<path d="M386.737 109.296L411.505 83.1523L415.021 86.6685L388.877 111.436L386.737 109.296Z" stroke="white"/>
<mask id="path-9-inside-2" fill="white">
<path fill-rule="evenodd" clip-rule="evenodd" d="M415.738 86.6782L429.173 71.8289L426.344 69.0005L411.495 82.4355"/>
</mask>
<path d="M416.479 87.3491L415.808 88.0906L414.325 86.7488L414.996 86.0073L416.479 87.3491ZM429.173 71.8289L429.88 71.1218L430.553 71.7945L429.914 72.4999L429.173 71.8289ZM426.344 69.0005L425.673 68.259L426.379 67.6208L427.051 68.2934L426.344 69.0005ZM414.996 86.0073L428.431 71.158L429.914 72.4999L416.479 87.3491L414.996 86.0073ZM428.466 72.5361L425.637 69.7076L427.051 68.2934L429.88 71.1218L428.466 72.5361ZM427.015 69.7421L412.166 83.1771L410.824 81.694L425.673 68.259L427.015 69.7421Z" fill="white" mask="url(#path-9-inside-2)"/>
<path d="M416.07 61.9293H388.16L363.706 86.383" stroke="white"/>
<path d="M425.991 120.266L416.592 99.9657" stroke="white"/>
<path d="M436.244 81.703L436.244 110.013L411.79 134.467" stroke="white"/>
<path fill-rule="evenodd" clip-rule="evenodd" d="M446.143 52.0298C447.901 53.7872 450.75 53.7872 452.507 52.0298C454.265 50.2725 454.265 47.4232 452.507 45.6659C450.75 43.9085 447.901 43.9085 446.143 45.6659C444.386 47.4232 444.386 50.2725 446.143 52.0298Z" fill="white" fill-opacity="0.3" stroke="white"/>
<path fill-rule="evenodd" clip-rule="evenodd" d="M434.123 64.0508C435.88 65.8082 438.729 65.8082 440.487 64.0508C442.244 62.2935 442.244 59.4442 440.487 57.6869C438.729 55.9295 435.88 55.9295 434.123 57.6869C432.365 59.4442 432.365 62.2935 434.123 64.0508Z" fill="white" fill-opacity="0.3" stroke="white"/>
<defs>
<linearGradient id="paint0_linear" x1="-272.289" y1="772.304" x2="-101.949" y2="879.751" gradientUnits="userSpaceOnUse">
<stop stop-color="#2D3A56" stop-opacity="0.01"/>
<stop offset="1" stop-color="white"/>
</linearGradient>
</defs>
</svg>
