<svg width="54" height="45" viewBox="0 0 54 45" fill="none" xmlns="http://www.w3.org/2000/svg">
<path fill-rule="evenodd" clip-rule="evenodd" d="M18.4204 3.58094H34.5827V6.99675H38V3.90471C38 1.78884 36.2914 0 34.2696 0L18.7296 0.00325392C16.7086 0.00325392 15 1.7921 15 3.90796V7H18.4172L18.4204 3.58094ZM53 41.8598V33C52.1411 33.6282 51.0515 33.9403 49.8824 33.9403H40.2194V35.0375C40.2194 35.7418 39.6738 36.2931 38.9708 36.2931H37.3325C36.6326 36.2931 36.0839 35.7449 36.0839 35.0375V33.9403H16.9122V35.0375C16.9122 35.7418 16.3674 36.2931 15.6644 36.2931H14.0292C13.3285 36.2931 12.7806 35.7449 12.7806 35.0375V33.9403H3.1176C1.9485 33.9403 0.85812 33.6282 0 33V41.8629C0 43.5875 1.40292 45 3.1176 45L49.8816 44.9969C51.5955 44.9969 52.9992 43.5875 52.9992 41.8598H53ZM0.00109565 28.6669V26.8104L0.00187826 11.8685C0.00187826 10.1653 1.41136 8.77172 3.13231 8.77172H50.0888C51.8098 8.77172 53.2193 10.1653 53.2193 11.8685V28.67C53.2193 30.3733 51.8098 31.7668 50.0888 31.7668H40.3861V30.6845C40.3861 29.9862 39.8351 29.4442 39.1323 29.4442L37.4935 29.4411C36.7868 29.4411 36.2398 29.9862 36.2398 30.6814V31.7637H16.9868V30.6814C16.9868 29.9831 16.4359 29.4411 15.7331 29.4411H14.0881C13.3821 29.4411 12.8343 29.9862 12.8343 30.6814V31.7637H3.13153C1.41057 31.7637 0.00109565 30.3702 0.00109565 28.6669Z" fill="#E41919"/>
</svg>
