<svg width="32" height="30" viewBox="0 0 32 30" fill="none" xmlns="http://www.w3.org/2000/svg">
<g id="Twitter">
<mask id="mask0" mask-type="alpha" maskUnits="userSpaceOnUse" x="0" y="0" width="32" height="30">
<path id="Clip 2" fill-rule="evenodd" clip-rule="evenodd" d="M0.749023 0H31.0036V29.8837H0.749023V0Z" fill="white"/>
</mask>
<g mask="url(#mask0)">
<path id="Fill 1" fill-rule="evenodd" clip-rule="evenodd" d="M23.3465 11.9215C23.3534 12.0719 23.3565 12.223 23.3565 12.3748C23.3565 17.0087 19.7854 22.3528 13.2546 22.3528H13.2549C11.2495 22.3528 9.38369 21.7723 7.81234 20.7776C8.09028 20.8099 8.37305 20.826 8.65923 20.826C10.323 20.826 11.8539 20.2657 13.069 19.3249C11.515 19.2965 10.2042 18.2826 9.75228 16.8892C9.96854 16.9302 10.1911 16.9524 10.4195 16.9524C10.7435 16.9524 11.0575 16.9093 11.3558 16.829C9.73121 16.5076 8.50725 15.0895 8.50725 13.3912C8.50725 13.3755 8.50725 13.361 8.50784 13.3464C8.98615 13.6093 9.53332 13.7672 10.1158 13.785C9.16273 13.1567 8.53586 12.0826 8.53586 10.8658C8.53586 10.2235 8.71174 9.62151 9.01664 9.10314C10.7675 11.2251 13.3841 12.6206 16.3349 12.7672C16.2741 12.5106 16.243 12.2429 16.243 11.9677C16.243 10.0317 17.833 8.46116 19.7936 8.46116C20.8151 8.46116 21.7374 8.88744 22.3853 9.56919C23.1941 9.41163 23.9539 9.11953 24.6399 8.71791C24.3743 9.53663 23.8116 10.2235 23.0785 10.6577C23.7967 10.5729 24.4813 10.3849 25.1175 10.1055C24.6422 10.8087 24.0397 11.4265 23.3465 11.9215ZM15.8763 0C7.52169 0 0.749023 6.68965 0.749023 14.9419C0.749023 23.1941 7.52169 29.8837 15.8763 29.8837C24.2309 29.8837 31.0036 23.1941 31.0036 14.9419C31.0036 6.68965 24.2309 0 15.8763 0Z" fill="#3B3B3B"/>
</g>
</g>
</svg>
