<svg width="25" height="13" viewBox="0 0 25 13" xmlns="http://www.w3.org/2000/svg"><path d="M.247 6.188V0h10.636l.266.269c.212.213.322.296.54.403.62.306 1.25.306 1.868 0 .219-.107.328-.19.54-.403L14.363 0H25v12.376h-6.977l-.139-.225a6.218 6.218 0 0 0-5.26-2.932 6.218 6.218 0 0 0-5.26 2.932l-.139.225H.246l.001-6.188zM6.96 9.234a2.997 2.997 0 0 0 1.654-.867 3.05 3.05 0 0 0 .722-3.252c-.293-.81-1.018-1.534-1.827-1.827a3.105 3.105 0 0 0-2.147 0c-.81.293-1.533 1.018-1.826 1.827a3.05 3.05 0 0 0 .721 3.252 3.034 3.034 0 0 0 2.704.867zm12.377 0a2.997 2.997 0 0 0 1.653-.867 3.05 3.05 0 0 0 .722-3.252c-.293-.81-1.018-1.534-1.827-1.827a3.105 3.105 0 0 0-2.146 0c-.81.293-1.533 1.018-1.827 1.827a3.05 3.05 0 0 0 .722 3.252 3.031 3.031 0 0 0 2.703.867z" fill="#FDC0C0"/></svg>