<svg width="22" height="23" viewBox="0 0 22 23" fill="none" xmlns="http://www.w3.org/2000/svg">
  <path d="M10.4496 0C4.68878 0.000976549 0.00194818 4.81549 0 10.7315C0 16.6435 4.68878 21.4542 10.4476 21.4542C12.8476 21.4542 15.0565 20.6115 16.823 19.2101L20.2104 22.6846C20.4149 22.8945 20.6832 23 20.9515 23C21.2197 23 21.488 22.8945 21.6925 22.6846C22.1025 22.2637 22.1025 21.583 21.6925 21.1631L18.346 17.7306C19.9318 15.8498 20.8991 13.4064 20.8991 10.7296C20.8991 4.81462 16.2084 0 10.4496 0ZM10.4496 2.15235C15.0536 2.15235 18.8007 5.99909 18.8026 10.7276C18.8026 15.4551 15.0546 19.3008 10.4476 19.3008C5.84259 19.3008 2.09843 15.4571 2.09649 10.7326C2.09649 6.00309 5.84454 2.1546 10.4496 2.1536V2.15235ZM10.4496 5.29009C9.87024 5.29009 9.40126 5.77252 9.40126 6.36627V9.52751H6.32192C5.7426 9.52751 5.27363 10.0099 5.27363 10.6037C5.27363 11.1974 5.7426 11.6799 6.32192 11.6799H9.40126V14.8411C9.40126 15.4349 9.87024 15.9173 10.4496 15.9173C11.0289 15.9173 11.4978 15.4349 11.4978 14.8411V11.6799H14.5762C15.1555 11.6799 15.6245 11.1974 15.6245 10.6037C15.6245 10.0099 15.1555 9.52751 14.5762 9.52751H11.4978V6.36627C11.4978 5.77252 11.0289 5.29009 10.4496 5.29009Z" fill="white"/>
</svg>
  